<svg width="42" height="40" viewBox="0 0 42 40" fill="none" xmlns="http://www.w3.org/2000/svg">
  <path d="M23.3333 10V19.0563L30.8583 23.5709C31.2373 23.7985 31.5104 24.1674 31.6175 24.5964C31.7245 25.0254 31.6568 25.4793 31.4291 25.8584C31.2015 26.2374 30.8326 26.5105 30.4036 26.6175C29.9746 26.7246 29.5207 26.6568 29.1416 26.4292L20.8083 21.4292C20.5617 21.281 20.3576 21.0715 20.2159 20.8211C20.0743 20.5706 19.9999 20.2878 20 20V10C20 9.55802 20.1756 9.1341 20.4881 8.82154C20.8007 8.50898 21.2246 8.33338 21.6666 8.33338C22.1087 8.33338 22.5326 8.50898 22.8451 8.82154C23.1577 9.1341 23.3333 9.55802 23.3333 10ZM21.6666 6.169e-05C19.0375 -0.00648736 16.4331 0.508465 14.0043 1.51512C11.5754 2.52177 9.37035 4.00013 7.51666 5.86464C6.00208 7.39797 4.65624 8.87297 3.33333 10.4167V6.66672C3.33333 6.22469 3.15773 5.80077 2.84517 5.48821C2.53261 5.17565 2.10869 5.00005 1.66666 5.00005C1.22464 5.00005 0.800715 5.17565 0.488155 5.48821C0.175594 5.80077 0 6.22469 0 6.66672V15C0 15.4421 0.175594 15.866 0.488155 16.1785C0.800715 16.4911 1.22464 16.6667 1.66666 16.6667H9.99999C10.442 16.6667 10.8659 16.4911 11.1785 16.1785C11.4911 15.866 11.6666 15.4421 11.6666 15C11.6666 14.558 11.4911 14.1341 11.1785 13.8215C10.8659 13.509 10.442 13.3334 9.99999 13.3334H5.20833C6.69791 11.5792 8.18124 9.92713 9.8729 8.21463C12.1893 5.89829 15.1369 4.31591 18.3474 3.66522C21.5579 3.01453 24.8891 3.32438 27.9245 4.55607C30.9599 5.78775 33.5651 7.88664 35.4145 10.5905C37.2639 13.2943 38.2755 16.4832 38.3229 19.7587C38.3703 23.0342 37.4513 26.251 35.6809 29.0072C33.9105 31.7634 31.3672 33.9367 28.3686 35.2557C25.3701 36.5747 22.0493 36.9808 18.8213 36.4232C15.5933 35.8657 12.6011 34.3692 10.2187 32.1208C10.0595 31.9704 9.8722 31.8527 9.66751 31.7747C9.46282 31.6966 9.24475 31.6596 9.02576 31.6658C8.80677 31.6719 8.59114 31.7212 8.39119 31.8107C8.19124 31.9003 8.01088 32.0283 7.8604 32.1875C7.70993 32.3467 7.5923 32.534 7.51421 32.7387C7.43613 32.9434 7.39912 33.1615 7.40531 33.3805C7.4115 33.5995 7.46077 33.8151 7.55029 34.0151C7.63981 34.215 7.76784 34.3954 7.92707 34.5458C10.3009 36.786 13.187 38.4111 16.3333 39.2794C19.4797 40.1476 22.7907 40.2327 25.9775 39.527C29.1642 38.8214 32.1299 37.3465 34.6156 35.2311C37.1013 33.1158 39.0315 30.4242 40.2377 27.3913C41.4439 24.3584 41.8896 21.0764 41.5357 17.8317C41.1818 14.587 40.0392 11.4781 38.2076 8.77658C36.3759 6.075 33.9109 3.86277 31.0277 2.33294C28.1444 0.803112 24.9306 0.00218612 21.6666 6.169e-05Z" fill="#AFA9A9"/>
</svg>
