<svg width="25" height="25" viewBox="0 0 25 25" fill="none" xmlns="http://www.w3.org/2000/svg">
  <path d="M14.064 10.8355L16.4622 8.43707C16.6179 8.26027 16.7004 8.03086 16.6928 7.79549C16.6853 7.56011 16.5884 7.33643 16.4217 7.16991C16.255 7.00339 16.0311 6.90653 15.7955 6.89901C15.5599 6.8915 15.3303 6.9739 15.1533 7.12945L12.7527 9.52541L10.3477 7.12204C10.2616 7.03598 10.1593 6.96771 10.0468 6.92114C9.9342 6.87456 9.81357 6.85059 9.69175 6.85059C9.56993 6.85059 9.4493 6.87456 9.33675 6.92114C9.2242 6.96771 9.12193 7.03598 9.03579 7.12204C8.94965 7.2081 8.88132 7.31027 8.8347 7.42272C8.78808 7.53517 8.76408 7.65568 8.76408 7.77739C8.76408 7.8991 8.78808 8.01962 8.8347 8.13207C8.88132 8.24451 8.94965 8.34669 9.03579 8.43275L11.4414 10.8355L9.04321 13.2333C8.94916 13.3173 8.87325 13.4196 8.82012 13.5339C8.767 13.6482 8.73778 13.7722 8.73425 13.8982C8.73072 14.0241 8.75296 14.1495 8.7996 14.2666C8.84624 14.3837 8.9163 14.4901 9.00551 14.5792C9.09471 14.6683 9.20118 14.7383 9.31839 14.7849C9.4356 14.8315 9.5611 14.8537 9.6872 14.8502C9.8133 14.8467 9.93736 14.8175 10.0518 14.7644C10.1662 14.7114 10.2686 14.6355 10.3527 14.5416L12.7527 12.1456L15.1503 14.5416C15.3242 14.7154 15.5602 14.813 15.8062 14.813C16.0523 14.813 16.2882 14.7154 16.4622 14.5416C16.6362 14.3677 16.7339 14.132 16.7339 13.8862C16.7339 13.6404 16.6362 13.4047 16.4622 13.2308L14.064 10.8355Z" fill="#008FFF"/>
  <path d="M19.2339 0.850586H6.23389C4.77576 0.852438 3.37789 1.4325 2.34685 2.46354C1.3158 3.49459 0.735739 4.89246 0.733887 6.35059L0.733887 15.3506C0.735739 16.8087 1.3158 18.2066 2.34685 19.2376C3.37789 20.2687 4.77576 20.8487 6.23389 20.8506H7.67189L11.7719 24.2786C12.0417 24.5041 12.3822 24.6277 12.7339 24.6277C13.0856 24.6277 13.4261 24.5041 13.6959 24.2786L17.7959 20.8506H19.2339C20.692 20.8487 22.0899 20.2687 23.1209 19.2376C24.152 18.2066 24.732 16.8087 24.7339 15.3506V6.35059C24.732 4.89246 24.152 3.49459 23.1209 2.46354C22.0899 1.4325 20.692 0.852438 19.2339 0.850586V0.850586ZM21.7339 15.3506C21.7339 16.0136 21.4705 16.6495 21.0017 17.1184C20.5328 17.5872 19.8969 17.8506 19.2339 17.8506H17.2509C16.8991 17.8508 16.5586 17.9747 16.2889 18.2006L12.7339 21.1726L9.17889 18.2006C8.90918 17.9747 8.56867 17.8508 8.21689 17.8506H6.23389C5.57085 17.8506 4.93496 17.5872 4.46612 17.1184C3.99728 16.6495 3.73389 16.0136 3.73389 15.3506V6.35059C3.73389 5.68754 3.99728 5.05166 4.46612 4.58282C4.93496 4.11398 5.57085 3.85059 6.23389 3.85059H19.2339C19.8969 3.85059 20.5328 4.11398 21.0017 4.58282C21.4705 5.05166 21.7339 5.68754 21.7339 6.35059V15.3506Z" fill="#008FFF"/>
</svg>
