<svg width="23" height="23" viewBox="0 0 23 23" fill="none" xmlns="http://www.w3.org/2000/svg">
  <path d="M11.192 9.15527e-05C8.15475 9.15527e-05 7.77282 0.0140815 6.57948 0.0672434C5.38614 0.123203 4.57332 0.310669 3.86123 0.58767C3.1143 0.868615 2.43774 1.30931 1.87885 1.87894C1.30957 2.43812 0.868927 3.11459 0.587579 3.86132C0.310577 4.57201 0.121713 5.38623 0.0671518 6.57537C0.01399 7.77152 0 8.15204 0 11.1935C0 14.2321 0.01399 14.6126 0.0671518 15.806C0.123112 16.9979 0.310577 17.8107 0.587579 18.5228C0.874373 19.2587 1.2563 19.8826 1.87885 20.5052C2.50001 21.1277 3.12396 21.5111 3.85983 21.7965C4.57332 22.0735 5.38474 22.2623 6.57668 22.3169C7.77143 22.37 8.15195 22.384 11.192 22.384C14.232 22.384 14.6111 22.37 15.8059 22.3169C16.9964 22.2609 17.812 22.0735 18.5241 21.7965C19.2706 21.5154 19.9466 21.0747 20.5051 20.5052C21.1276 19.8826 21.5096 19.2587 21.7964 18.5228C22.072 17.8107 22.2608 16.9979 22.3168 15.806C22.37 14.6126 22.3839 14.2321 22.3839 11.1921C22.3839 8.15204 22.37 7.77152 22.3168 6.57677C22.2608 5.38623 22.072 4.57201 21.7964 3.86132C21.5151 3.11457 21.0744 2.43809 20.5051 1.87894C19.9464 1.3091 19.2698 0.868372 18.5227 0.58767C17.8092 0.310669 16.995 0.121804 15.8045 0.0672434C14.6097 0.0140815 14.2306 9.15527e-05 11.1892 9.15527e-05H11.1934H11.192ZM10.1889 2.01744H11.1934C14.1816 2.01744 14.5356 2.02724 15.7149 2.0818C16.8061 2.13076 17.3993 2.31403 17.7938 2.46652C18.3157 2.66938 18.6892 2.9128 19.0809 3.30452C19.4726 3.69624 19.7147 4.06837 19.9175 4.5916C20.0714 4.98472 20.2533 5.57789 20.3022 6.66911C20.3568 7.84846 20.368 8.20241 20.368 11.1893C20.368 14.1761 20.3568 14.5315 20.3022 15.7108C20.2533 16.802 20.07 17.3938 19.9175 17.7883C19.7381 18.2743 19.4517 18.7137 19.0795 19.074C18.6878 19.4657 18.3157 19.7078 17.7924 19.9106C17.4007 20.0645 16.8075 20.2464 15.7149 20.2967C14.5356 20.3499 14.1816 20.3625 11.1934 20.3625C8.20511 20.3625 7.84977 20.3499 6.67042 20.2967C5.5792 20.2464 4.98742 20.0645 4.59291 19.9106C4.10675 19.7314 3.66695 19.4456 3.30583 19.074C2.93335 18.7131 2.64651 18.2733 2.46643 17.7869C2.31394 17.3938 2.13067 16.8006 2.08171 15.7094C2.02854 14.5301 2.01735 14.1761 2.01735 11.1865C2.01735 8.19821 2.02854 7.84566 2.08171 6.66631C2.13207 5.57509 2.31394 4.98192 2.46783 4.5874C2.67068 4.06558 2.91411 3.69204 3.30583 3.30032C3.69755 2.90861 4.06968 2.66658 4.59291 2.46372C4.98742 2.30983 5.5792 2.12797 6.67042 2.0776C7.70287 2.03004 8.10299 2.01605 10.1889 2.01465V2.01744ZM17.1671 3.87531C16.9907 3.87531 16.8161 3.91005 16.6531 3.97754C16.4902 4.04504 16.3421 4.14397 16.2174 4.26868C16.0927 4.39339 15.9938 4.54145 15.9263 4.70439C15.8588 4.86734 15.824 5.04198 15.824 5.21835C15.824 5.39472 15.8588 5.56936 15.9263 5.73231C15.9938 5.89525 16.0927 6.04331 16.2174 6.16802C16.3421 6.29273 16.4902 6.39166 16.6531 6.45915C16.8161 6.52665 16.9907 6.56138 17.1671 6.56138C17.5233 6.56138 17.8649 6.41989 18.1168 6.16802C18.3686 5.91615 18.5101 5.57454 18.5101 5.21835C18.5101 4.86215 18.3686 4.52055 18.1168 4.26868C17.8649 4.01681 17.5233 3.87531 17.1671 3.87531ZM11.1934 5.44499C10.431 5.43309 9.67391 5.57297 8.96614 5.85649C8.25836 6.14 7.61406 6.56148 7.07074 7.09639C6.52742 7.6313 6.09594 8.26895 5.80142 8.97222C5.5069 9.67549 5.35522 10.4303 5.35522 11.1928C5.35522 11.9552 5.5069 12.71 5.80142 13.4133C6.09594 14.1166 6.52742 14.7542 7.07074 15.2891C7.61406 15.824 8.25836 16.2455 8.96614 16.529C9.67391 16.8126 10.431 16.9524 11.1934 16.9405C12.7022 16.917 14.1414 16.3011 15.2001 15.2257C16.2588 14.1504 16.8522 12.7018 16.8522 11.1928C16.8522 9.6837 16.2588 8.23516 15.2001 7.15981C14.1414 6.08445 12.7022 5.46853 11.1934 5.44499ZM11.1934 7.46094C12.1829 7.46094 13.132 7.85404 13.8317 8.55376C14.5314 9.25348 14.9245 10.2025 14.9245 11.1921C14.9245 12.1816 14.5314 13.1306 13.8317 13.8304C13.132 14.5301 12.1829 14.9232 11.1934 14.9232C10.2038 14.9232 9.25479 14.5301 8.55507 13.8304C7.85535 13.1306 7.46225 12.1816 7.46225 11.1921C7.46225 10.2025 7.85535 9.25348 8.55507 8.55376C9.25479 7.85404 10.2038 7.46094 11.1934 7.46094Z" fill="white"/>
</svg>
