<svg width="15" height="15" viewBox="0 0 15 15" fill="none" xmlns="http://www.w3.org/2000/svg">
  <path d="M10.9201 9.53083C10.8668 9.47687 10.8527 9.39225 10.896 9.33004C11.7136 8.158 12.0759 6.72608 11.9119 5.30336C11.7425 3.83521 11.0251 2.48513 9.90313 1.52322C8.78113 0.561316 7.33732 0.0585178 5.86053 0.115421C4.38375 0.172324 2.9829 0.784732 1.93826 1.83013C0.893613 2.87552 0.282206 4.2768 0.22636 5.75362C0.170514 7.23045 0.674346 8.6739 1.63706 9.7952C2.59977 10.9165 3.95036 11.633 5.41863 11.8012C6.88672 11.9695 8.3642 11.5773 9.55556 10.7031C9.5557 10.703 9.55563 10.7028 9.55546 10.7028C9.55531 10.7028 9.55522 10.7029 9.55531 10.703C9.58232 10.739 9.61112 10.7732 9.64351 10.8065L13.1169 14.2799C13.2861 14.4492 13.5155 14.5443 13.7549 14.5444C13.9942 14.5445 14.2237 14.4495 14.393 14.2803C14.5623 14.1112 14.6575 13.8817 14.6575 13.6424C14.6576 13.403 14.5626 13.1735 14.3935 13.0042L10.9201 9.53083ZM11.0491 5.97354C11.0491 6.62516 10.9208 7.27039 10.6714 7.87241C10.422 8.47442 10.0565 9.02143 9.59578 9.48219C9.13501 9.94295 8.58801 10.3084 7.98599 10.5578C7.38398 10.8072 6.73875 10.9355 6.08713 10.9355C5.43551 10.9355 4.79028 10.8072 4.18826 10.5578C3.58625 10.3084 3.03925 9.94295 2.57848 9.48219C2.11772 9.02143 1.75223 8.47442 1.50286 7.87241C1.2535 7.27039 1.12516 6.62516 1.12516 5.97354C1.12516 4.65755 1.64793 3.39545 2.57848 2.4649C3.50903 1.53435 4.77113 1.01157 6.08713 1.01157C7.40313 1.01157 8.66522 1.53435 9.59578 2.4649C10.5263 3.39545 11.0491 4.65755 11.0491 5.97354Z" fill="#CC0000"/>
</svg>
