<svg width="28" height="23" viewBox="0 0 28 23" fill="none" xmlns="http://www.w3.org/2000/svg">
  <path d="M24.4371 5.66881C24.4535 5.9075 24.4535 6.14618 24.4535 6.38707C24.4535 13.7269 18.8767 22.192 8.67924 22.192V22.1876C5.66687 22.192 2.71707 21.3274 0.181152 19.6973C0.619175 19.7501 1.05939 19.7765 1.50071 19.7776C3.99711 19.7798 6.42215 18.9406 8.38612 17.3952C6.01377 17.3501 3.93344 15.8003 3.20669 13.5377C4.03773 13.6983 4.89401 13.6653 5.70968 13.442C3.12326 12.9185 1.26249 10.6416 1.26249 7.99737C1.26249 7.97317 1.26249 7.95007 1.26249 7.92697C2.03314 8.35704 2.89602 8.59573 3.77865 8.62213C1.34263 6.99093 0.59173 3.74394 2.06278 1.2053C4.87755 4.67558 9.03053 6.78524 13.4887 7.00853C13.0419 5.07925 13.6523 3.05758 15.0926 1.70136C17.3255 -0.401703 20.8374 -0.29391 22.9364 1.94225C24.178 1.69696 25.368 1.24049 26.457 0.593734C26.0432 1.87955 25.177 2.97178 24.0199 3.66584C25.1188 3.53605 26.1925 3.24127 27.2035 2.7914C26.4592 3.90893 25.5217 4.88236 24.4371 5.66881Z" fill="white"/>
</svg>
