<svg width="27" height="19" viewBox="0 0 27 19" fill="none" xmlns="http://www.w3.org/2000/svg">
  <path d="M13.3656 0.130951H13.5092C14.8346 0.135788 21.5503 0.184161 23.3611 0.671113C23.9085 0.819728 24.4073 1.10941 24.8077 1.5112C25.208 1.91299 25.4959 2.41283 25.6426 2.96076C25.8055 3.57348 25.92 4.38453 25.9974 5.22137L26.0135 5.38907L26.049 5.8083L26.0619 5.97599C26.1667 7.44974 26.1796 8.82998 26.1812 9.1315V9.25244C26.1796 9.56525 26.1651 11.039 26.049 12.574L26.0361 12.7433L26.0215 12.911C25.9409 13.8333 25.8216 14.7492 25.6426 15.4232C25.4964 15.9713 25.2086 16.4714 24.8082 16.8733C24.4077 17.2751 23.9087 17.5647 23.3611 17.7128C21.4906 18.2159 14.3815 18.2514 13.3963 18.253H13.1673C12.6691 18.253 10.6084 18.2433 8.44776 18.1691L8.17365 18.1595L8.03336 18.153L7.75764 18.1417L7.48192 18.1304C5.69213 18.0514 3.9878 17.9241 3.20255 17.7112C2.65511 17.5632 2.15619 17.2739 1.75576 16.8723C1.35533 16.4708 1.06745 15.971 0.92097 15.4232C0.741991 14.7508 0.622672 13.8333 0.542051 12.911L0.529151 12.7417L0.516252 12.574C0.436675 11.4814 0.392579 10.3866 0.384033 9.29113L0.384033 9.0928C0.387258 8.74613 0.400157 7.5481 0.487228 6.22591L0.498515 6.05983L0.503352 5.97599L0.516252 5.8083L0.551725 5.38907L0.567849 5.22137C0.645246 4.38453 0.759728 3.57186 0.922582 2.96076C1.06882 2.41261 1.35659 1.91254 1.75703 1.51067C2.15748 1.10881 2.65653 0.819283 3.20416 0.671113C3.98941 0.461498 5.69374 0.332504 7.48353 0.251883L7.75764 0.240596L8.03498 0.230921L8.17365 0.226084L8.44937 0.214797C9.98392 0.165416 11.5191 0.138002 13.0544 0.132563H13.3656V0.130951ZM10.7035 5.30683V13.0755L17.4064 9.19277L10.7035 5.30683Z" fill="white"/>
</svg>
