<svg width="23" height="16" viewBox="0 0 23 16" fill="none" xmlns="http://www.w3.org/2000/svg">
  <path d="M22.014 5.41387C21.0459 6.12695 19.8252 6.99849 15.5319 9.93004C14.69 10.5243 13.1327 11.8316 11.6595 11.8316C10.1442 11.8316 8.62887 10.5243 7.74495 9.93004C3.45161 6.99849 2.23096 6.12695 1.26286 5.41387C1.09449 5.29502 0.884033 5.41386 0.884033 5.61194V13.6935C0.884033 14.7631 1.76795 15.5951 2.90443 15.5951H20.4145C21.5089 15.5951 22.4349 14.7631 22.4349 13.6935V5.61194C22.4349 5.41386 22.1823 5.29502 22.014 5.41387ZM11.6595 10.5243C12.6276 10.5639 14.0166 9.37542 14.7321 8.90003C20.3303 5.09694 20.7512 4.7404 22.014 3.78963C22.2665 3.63117 22.4349 3.35386 22.4349 3.03693V2.28424C22.4349 1.25423 21.5089 0.38269 20.4145 0.38269H2.90443C1.76795 0.38269 0.884033 1.25423 0.884033 2.28424V3.03693C0.884033 3.35386 1.01031 3.63117 1.26286 3.78963C2.5256 4.7404 2.94652 5.09694 8.54469 8.90003C9.26024 9.37542 10.6493 10.5639 11.6595 10.5243Z" fill="white"/>
</svg>
