<svg width="19" height="18" viewBox="0 0 19 18" fill="none" xmlns="http://www.w3.org/2000/svg">
  <path fill-rule="evenodd" clip-rule="evenodd" d="M1.99327 8.8827C1.99327 10.942 2.81133 12.917 4.26748 14.3731C5.72364 15.8293 7.69861 16.6474 9.75792 16.6474C11.8172 16.6474 13.7922 15.8293 15.2484 14.3731C16.7045 12.917 17.5226 10.942 17.5226 8.8827C17.5226 6.82339 16.7045 4.84842 15.2484 3.39227C13.7922 1.93611 11.8172 1.11806 9.75792 1.11806C7.69861 1.11806 5.72364 1.93611 4.26748 3.39227C2.81133 4.84842 1.99327 6.82339 1.99327 8.8827ZM18.6318 8.8827C18.6318 11.2362 17.6969 13.4933 16.0327 15.1575C14.3685 16.8217 12.1114 17.7566 9.75792 17.7566C7.40442 17.7566 5.14731 16.8217 3.48313 15.1575C1.81896 13.4933 0.884033 11.2362 0.884033 8.8827C0.884033 6.5292 1.81896 4.2721 3.48313 2.60792C5.14731 0.943744 7.40442 0.00881958 9.75792 0.00881958C12.1114 0.00881958 14.3685 0.943744 16.0327 2.60792C17.6969 4.2721 18.6318 6.5292 18.6318 8.8827ZM10.3125 12.765C10.3125 12.9121 10.2541 13.0532 10.1501 13.1572C10.0461 13.2612 9.90501 13.3196 9.75792 13.3196C9.61083 13.3196 9.46976 13.2612 9.36575 13.1572C9.26174 13.0532 9.2033 12.9121 9.2033 12.765V6.33923L6.82288 8.72075C6.71874 8.8249 6.57749 8.8834 6.43021 8.8834C6.28293 8.8834 6.14169 8.8249 6.03754 8.72075C5.9334 8.61661 5.87489 8.47537 5.87489 8.32809C5.87489 8.18081 5.9334 8.03956 6.03754 7.93542L9.36525 4.60771C9.41677 4.55606 9.47797 4.51508 9.54535 4.48712C9.61273 4.45916 9.68497 4.44477 9.75792 4.44477C9.83087 4.44477 9.90311 4.45916 9.97049 4.48712C10.0379 4.51508 10.0991 4.55606 10.1506 4.60771L13.4783 7.93542C13.5824 8.03956 13.6409 8.18081 13.6409 8.32809C13.6409 8.47537 13.5824 8.61661 13.4783 8.72075C13.3742 8.8249 13.2329 8.8834 13.0856 8.8834C12.9383 8.8834 12.7971 8.8249 12.693 8.72075L10.3125 6.33923V12.765Z" fill="white"/>
</svg>
