<svg width="14" height="21" viewBox="0 0 14 21" fill="none" xmlns="http://www.w3.org/2000/svg">
  <path d="M10.9413 1.41565C11.2747 1.41565 11.5945 1.55105 11.8303 1.79206C12.066 2.03307 12.1985 2.35994 12.1985 2.70078V18.1223C12.1985 18.4632 12.066 18.79 11.8303 19.031C11.5945 19.2721 11.2747 19.4074 10.9413 19.4074H3.39836C3.06494 19.4074 2.74517 19.2721 2.50941 19.031C2.27365 18.79 2.14119 18.4632 2.14119 18.1223V2.70078C2.14119 2.35994 2.27365 2.03307 2.50941 1.79206C2.74517 1.55105 3.06494 1.41565 3.39836 1.41565H10.9413ZM3.39836 0.130524C2.73152 0.130524 2.09199 0.401318 1.62046 0.883335C1.14893 1.36535 0.884033 2.01911 0.884033 2.70078V18.1223C0.884033 18.804 1.14893 19.4578 1.62046 19.9398C2.09199 20.4218 2.73152 20.6926 3.39836 20.6926H10.9413C11.6082 20.6926 12.2477 20.4218 12.7192 19.9398C13.1907 19.4578 13.4556 18.804 13.4556 18.1223V2.70078C13.4556 2.01911 13.1907 1.36535 12.7192 0.883335C12.2477 0.401318 11.6082 0.130524 10.9413 0.130524H3.39836Z" fill="white"/>
  <path d="M7.16984 18.1223C7.50326 18.1223 7.82302 17.9869 8.05879 17.7459C8.29455 17.5049 8.427 17.178 8.427 16.8372C8.427 16.4964 8.29455 16.1695 8.05879 15.9285C7.82302 15.6875 7.50326 15.5521 7.16984 15.5521C6.83642 15.5521 6.51666 15.6875 6.28089 15.9285C6.04513 16.1695 5.91268 16.4964 5.91268 16.8372C5.91268 17.178 6.04513 17.5049 6.28089 17.7459C6.51666 17.9869 6.83642 18.1223 7.16984 18.1223Z" fill="white"/>
</svg>
